<svg width="171" height="12" viewBox="0 0 171 12" fill="none" xmlns="http://www.w3.org/2000/svg">
<path d="M25.6848 4.73357C25.9851 4.07282 26.0742 3.31741 25.9376 2.59237C25.8313 1.97573 25.5639 1.40803 25.1691 0.960825C24.7743 0.513617 24.2698 0.206915 23.7191 0.079377C23.2821 -0.0301408 22.8284 -0.0261063 22.393 0.0911693C21.9576 0.208445 21.5521 0.435827 21.2078 0.755779C20.3498 1.51468 19.2814 1.91549 18.1871 1.88909H7.81294C6.71857 1.91549 5.65024 1.51468 4.79217 0.755779C4.44792 0.435827 4.04245 0.208445 3.60703 0.0911693C3.17162 -0.0261063 2.71791 -0.0301408 2.28088 0.079377C1.73023 0.206915 1.22571 0.513617 0.830921 0.960825C0.43613 1.40803 0.168735 1.97573 0.062437 2.59237C-0.0742165 3.31741 0.0149472 4.07282 0.31517 4.73357C0.423983 4.97142 0.480719 5.23471 0.480719 5.5018C0.480719 5.76889 0.423983 6.03218 0.31517 6.27003C0.0155689 6.93099 -0.0735661 7.68616 0.062437 8.41123C0.169011 9.0282 0.436418 9.59627 0.831096 10.0442C1.22577 10.492 1.73014 10.7998 2.28088 10.9287C2.71791 11.0382 3.17162 11.0342 3.60703 10.9169C4.04245 10.7996 4.44792 10.5722 4.79217 10.2523C5.64986 9.49212 6.71813 9.08975 7.81294 9.11451H18.1871C19.2819 9.08975 20.3501 9.49212 21.2078 10.2523C21.5521 10.5722 21.9576 10.7996 22.393 10.9169C22.8284 11.0342 23.2821 11.0382 23.7191 10.9287C24.2699 10.7998 24.7742 10.492 25.1689 10.0442C25.5636 9.59627 25.831 9.0282 25.9376 8.41123C26.0736 7.68616 25.9844 6.93099 25.6848 6.27003C25.576 6.03218 25.5193 5.76889 25.5193 5.5018C25.5193 5.23471 25.576 4.97142 25.6848 4.73357Z" fill="#FBDE42"/>
<path d="M36.3152 4.73369L36.7704 4.52685C36.5135 3.96147 36.4359 3.31078 36.5538 2.6851L36.5538 2.68511L36.5552 2.67743C36.6465 2.14744 36.8754 1.66611 37.2058 1.29185C37.5357 0.91814 37.9503 0.669294 38.3937 0.566604L38.3937 0.566683L38.4024 0.564502C38.7567 0.475722 39.1238 0.478957 39.477 0.574085C39.8305 0.669297 40.1645 0.855157 40.4518 1.12215L40.4517 1.12226L40.4609 1.13043C41.4071 1.96725 42.5942 2.41715 43.8188 2.38921H54.1812C55.4058 2.41715 56.5929 1.96725 57.5391 1.13043L57.5392 1.13055L57.5482 1.12215C57.8355 0.855157 58.1695 0.669297 58.523 0.574086C58.8762 0.478957 59.2433 0.475722 59.5976 0.564502L59.5976 0.56458L59.6063 0.566604C60.0497 0.669294 60.4643 0.91814 60.7942 1.29185C61.1246 1.66611 61.3535 2.14744 61.4448 2.67743L61.4448 2.67744L61.4462 2.6851C61.5641 3.31058 61.4866 3.96106 61.2299 4.52631C61.0907 4.83068 61.0193 5.16484 61.0193 5.50192C61.0193 5.83895 61.0907 6.17304 61.2298 6.47737C61.486 7.04302 61.5635 7.69348 61.4461 8.31917L61.4461 8.31916L61.4449 8.32624C61.3532 8.85675 61.1243 9.33866 60.7938 9.7137C60.4638 10.0882 60.0489 10.3381 59.6051 10.442L59.6051 10.4419L59.5976 10.4438C59.2433 10.5326 58.8762 10.5294 58.523 10.4342C58.1695 10.339 57.8355 10.1532 57.5482 9.88617L57.5483 9.88607L57.5395 9.87823C56.5937 9.04003 55.4067 8.58843 54.1816 8.61463H43.8184C42.5933 8.58843 41.4063 9.04003 40.4605 9.87823L40.4604 9.87813L40.4518 9.88617C40.1645 10.1532 39.8305 10.339 39.477 10.4342C39.1238 10.5294 38.7567 10.5326 38.4024 10.4438L38.4024 10.4438L38.3949 10.442C37.9511 10.3381 37.5362 10.0882 37.2062 9.7137C36.8757 9.33866 36.6468 8.85675 36.5551 8.32624L36.5552 8.32623L36.5539 8.31917C36.4365 7.69345 36.514 7.04296 36.7703 6.47728C36.9093 6.17298 36.9807 5.83891 36.9807 5.50192C36.9807 5.16461 36.9092 4.83022 36.7699 4.52568L36.3152 4.73369ZM36.3152 4.73369C36.0149 4.07294 35.9258 3.31753 36.0624 2.59249L36.3152 6.27015C36.424 6.0323 36.4807 5.76901 36.4807 5.50192C36.4807 5.23483 36.424 4.97154 36.3152 4.73369Z" stroke="#FBDE42"/>
<path d="M72.3152 4.73369L72.7704 4.52685C72.5135 3.96147 72.4359 3.31078 72.5538 2.6851L72.5538 2.68511L72.5552 2.67743C72.6465 2.14744 72.8754 1.66611 73.2058 1.29185C73.5357 0.91814 73.9503 0.669294 74.3937 0.566604L74.3937 0.566683L74.4024 0.564502C74.7567 0.475722 75.1238 0.478957 75.477 0.574085C75.8305 0.669297 76.1645 0.855157 76.4518 1.12215L76.4517 1.12226L76.4609 1.13043C77.4071 1.96725 78.5942 2.41715 79.8188 2.38921H90.1812C91.4058 2.41715 92.5929 1.96725 93.5391 1.13043L93.5392 1.13055L93.5482 1.12215C93.8355 0.855157 94.1695 0.669297 94.523 0.574086C94.8762 0.478957 95.2433 0.475722 95.5976 0.564502L95.5976 0.56458L95.6063 0.566604C96.0497 0.669294 96.4643 0.91814 96.7942 1.29185C97.1246 1.66611 97.3535 2.14744 97.4448 2.67743L97.4448 2.67744L97.4462 2.6851C97.5641 3.31058 97.4866 3.96106 97.2299 4.52631C97.0907 4.83068 97.0193 5.16484 97.0193 5.50192C97.0193 5.83895 97.0907 6.17304 97.2298 6.47737C97.486 7.04302 97.5635 7.69348 97.4461 8.31917L97.4461 8.31916L97.4449 8.32624C97.3532 8.85675 97.1243 9.33866 96.7938 9.7137C96.4638 10.0882 96.0489 10.3381 95.6051 10.442L95.6051 10.4419L95.5976 10.4438C95.2433 10.5326 94.8762 10.5294 94.523 10.4342C94.1695 10.339 93.8355 10.1532 93.5482 9.88617L93.5483 9.88607L93.5395 9.87823C92.5937 9.04003 91.4067 8.58843 90.1816 8.61463H79.8184C78.5933 8.58843 77.4063 9.04003 76.4605 9.87823L76.4604 9.87813L76.4518 9.88617C76.1645 10.1532 75.8305 10.339 75.477 10.4342C75.1238 10.5294 74.7567 10.5326 74.4024 10.4438L74.4024 10.4438L74.3949 10.442C73.9511 10.3381 73.5362 10.0882 73.2062 9.7137C72.8757 9.33866 72.6468 8.85675 72.5551 8.32624L72.5552 8.32623L72.5539 8.31917C72.4365 7.69345 72.514 7.04296 72.7703 6.47728C72.9093 6.17298 72.9807 5.83891 72.9807 5.50192C72.9807 5.16461 72.9092 4.83022 72.7699 4.52568L72.3152 4.73369ZM72.3152 4.73369C72.0149 4.07294 71.9258 3.31753 72.0624 2.59249L72.3152 6.27015C72.424 6.0323 72.4807 5.76901 72.4807 5.50192C72.4807 5.23483 72.424 4.97154 72.3152 4.73369Z" stroke="#FBDE42"/>
<path d="M108.327 4.73369L108.779 4.52032C108.514 3.95713 108.434 3.31023 108.556 2.68853L108.556 2.68854L108.557 2.6806C108.651 2.15405 108.888 1.67382 109.231 1.29882C109.575 0.924212 110.009 0.671938 110.477 0.567508L110.477 0.567582L110.486 0.565547C110.86 0.475317 111.248 0.47862 111.62 0.575277C111.993 0.671975 112.343 0.860219 112.643 1.12848L112.643 1.12859L112.652 1.13656C113.632 1.97118 114.858 2.41702 116.119 2.38921H126.881C128.142 2.41702 129.368 1.97118 130.348 1.13656L130.348 1.13667L130.357 1.12848C130.657 0.860219 131.007 0.671975 131.38 0.575277C131.752 0.47862 132.14 0.475317 132.514 0.565547L132.514 0.56562L132.523 0.567508C132.991 0.671938 133.425 0.924212 133.769 1.29882C134.112 1.67382 134.349 2.15405 134.443 2.6806L134.443 2.68061L134.444 2.68853C134.566 3.31009 134.486 3.95682 134.221 4.51992C134.076 4.82559 134.001 5.16199 134.001 5.50192C134.001 5.84184 134.076 6.17824 134.221 6.4839C134.486 7.04737 134.565 7.69404 134.444 8.31575L134.444 8.31574L134.443 8.32307C134.348 8.85015 134.112 9.33095 133.768 9.70672C133.425 10.0821 132.99 10.3354 132.521 10.4411L132.521 10.441L132.514 10.4428C132.14 10.533 131.752 10.5297 131.38 10.433C131.007 10.3363 130.657 10.1481 130.357 9.87984L130.357 9.87974L130.348 9.8721C129.369 9.03608 128.143 8.58855 126.881 8.61463H116.119C114.857 8.58855 113.631 9.03608 112.652 9.8721L112.652 9.872L112.643 9.87984C112.343 10.1481 111.993 10.3363 111.62 10.433C111.248 10.5297 110.86 10.533 110.486 10.4428L110.486 10.4427L110.479 10.4411C110.01 10.3354 109.575 10.0821 109.232 9.70672C108.888 9.33095 108.652 8.85015 108.557 8.32307L108.557 8.32306L108.556 8.31575C108.435 7.69401 108.514 7.0473 108.779 6.48382C108.924 6.17818 108.999 5.84181 108.999 5.50192C108.999 5.1617 108.924 4.82501 108.779 4.51913L108.327 4.73369ZM108.327 4.73369C108.016 4.07294 107.923 3.31753 108.065 2.59249L108.327 4.73369Z" stroke="#FBDE42"/>
<path d="M145.315 4.73369L145.77 4.52685C145.513 3.96147 145.436 3.31078 145.554 2.6851L145.554 2.68511L145.555 2.67743C145.647 2.14744 145.875 1.66611 146.206 1.29185C146.536 0.91814 146.95 0.669294 147.394 0.566604L147.394 0.566683L147.402 0.564502C147.757 0.475722 148.124 0.478957 148.477 0.574085C148.83 0.669297 149.165 0.855157 149.452 1.12215L149.452 1.12226L149.461 1.13043C150.407 1.96725 151.594 2.41715 152.819 2.38921H163.181C164.406 2.41715 165.593 1.96725 166.539 1.13043L166.539 1.13055L166.548 1.12215C166.835 0.855157 167.17 0.669297 167.523 0.574086C167.876 0.478957 168.243 0.475722 168.598 0.564502L168.598 0.56458L168.606 0.566604C169.05 0.669294 169.464 0.91814 169.794 1.29185C170.125 1.66611 170.353 2.14744 170.445 2.67743L170.445 2.67744L170.446 2.6851C170.564 3.31058 170.487 3.96106 170.23 4.52631C170.091 4.83068 170.019 5.16484 170.019 5.50192C170.019 5.83895 170.091 6.17304 170.23 6.47737C170.486 7.04302 170.563 7.69348 170.446 8.31917L170.446 8.31916L170.445 8.32624C170.353 8.85675 170.124 9.33866 169.794 9.7137C169.464 10.0882 169.049 10.3381 168.605 10.442L168.605 10.4419L168.598 10.4438C168.243 10.5326 167.876 10.5294 167.523 10.4342C167.17 10.339 166.835 10.1532 166.548 9.88617L166.548 9.88607L166.539 9.87823C165.594 9.04003 164.407 8.58843 163.182 8.61463H152.818C151.593 8.58843 150.406 9.04003 149.461 9.87823L149.46 9.87813L149.452 9.88617C149.165 10.1532 148.83 10.339 148.477 10.4342C148.124 10.5294 147.757 10.5326 147.402 10.4438L147.402 10.4438L147.395 10.442C146.951 10.3381 146.536 10.0882 146.206 9.7137C145.876 9.33866 145.647 8.85675 145.555 8.32624L145.555 8.32623L145.554 8.31917C145.436 7.69345 145.514 7.04296 145.77 6.47728C145.909 6.17298 145.981 5.83891 145.981 5.50192C145.981 5.16461 145.909 4.83022 145.77 4.52568L145.315 4.73369ZM145.315 4.73369C145.015 4.07294 144.926 3.31753 145.062 2.59249L145.315 6.27015C145.424 6.0323 145.481 5.76901 145.481 5.50192C145.481 5.23483 145.424 4.97154 145.315 4.73369Z" stroke="#FBDE42"/>
</svg>
