<svg width="171" height="12" viewBox="0 0 171 12" fill="none" xmlns="http://www.w3.org/2000/svg">
<path d="M25.6848 4.76494C25.9851 4.10419 26.0742 3.34878 25.9376 2.62374C25.8313 2.00711 25.5639 1.43941 25.1691 0.992197C24.7743 0.544989 24.2698 0.238287 23.7191 0.110749C23.2821 0.00123124 22.8284 0.00526576 22.393 0.122541C21.9576 0.239817 21.5521 0.467199 21.2078 0.787151C20.3498 1.54606 19.2814 1.94686 18.1871 1.92046H7.81294C6.71857 1.94686 5.65024 1.54606 4.79217 0.787151C4.44792 0.467199 4.04245 0.239817 3.60703 0.122541C3.17162 0.00526576 2.71791 0.00123124 2.28088 0.110749C1.73023 0.238287 1.22571 0.544989 0.830921 0.992197C0.43613 1.43941 0.168735 2.00711 0.062437 2.62374C-0.0742165 3.34878 0.0149472 4.10419 0.31517 4.76494C0.423983 5.00279 0.480719 5.26608 0.480719 5.53317C0.480719 5.80026 0.423983 6.06355 0.31517 6.3014C0.0155689 6.96236 -0.0735661 7.71753 0.062437 8.4426C0.169011 9.05957 0.436418 9.62764 0.831096 10.0755C1.22577 10.5234 1.73014 10.8311 2.28088 10.9601C2.71791 11.0696 3.17162 11.0656 3.60703 10.9483C4.04245 10.831 4.44792 10.6036 4.79217 10.2837C5.64986 9.52349 6.71813 9.12112 7.81294 9.14588H18.1871C19.2819 9.12112 20.3501 9.52349 21.2078 10.2837C21.5521 10.6036 21.9576 10.831 22.393 10.9483C22.8284 11.0656 23.2821 11.0696 23.7191 10.9601C24.2699 10.8311 24.7742 10.5234 25.1689 10.0755C25.5636 9.62764 25.831 9.05957 25.9376 8.4426C26.0736 7.71753 25.9844 6.96236 25.6848 6.3014C25.576 6.06355 25.5193 5.80026 25.5193 5.53317C25.5193 5.26608 25.576 5.00279 25.6848 4.76494Z" fill="#FBDE42"/>
<path d="M61.6848 4.76494C61.9851 4.10419 62.0742 3.34878 61.9376 2.62374C61.8313 2.00711 61.5639 1.43941 61.1691 0.992197C60.7743 0.544989 60.2698 0.238287 59.7191 0.110749C59.2821 0.00123124 58.8284 0.00526576 58.393 0.122541C57.9576 0.239817 57.5521 0.467199 57.2078 0.787151C56.3498 1.54606 55.2814 1.94686 54.1871 1.92046H43.8129C42.7186 1.94686 41.6502 1.54606 40.7922 0.787151C40.4479 0.467199 40.0424 0.239817 39.607 0.122541C39.1716 0.00526576 38.7179 0.00123124 38.2809 0.110749C37.7302 0.238287 37.2257 0.544989 36.8309 0.992197C36.4361 1.43941 36.1687 2.00711 36.0624 2.62374C35.9258 3.34878 36.0149 4.10419 36.3152 4.76494C36.424 5.00279 36.4807 5.26608 36.4807 5.53317C36.4807 5.80026 36.424 6.06355 36.3152 6.3014C36.0156 6.96236 35.9264 7.71753 36.0624 8.4426C36.169 9.05957 36.4364 9.62764 36.8311 10.0755C37.2258 10.5234 37.7301 10.8311 38.2809 10.9601C38.7179 11.0696 39.1716 11.0656 39.607 10.9483C40.0424 10.831 40.4479 10.6036 40.7922 10.2837C41.6499 9.52349 42.7181 9.12112 43.8129 9.14588H54.1871C55.2819 9.12112 56.3501 9.52349 57.2078 10.2837C57.5521 10.6036 57.9576 10.831 58.393 10.9483C58.8284 11.0656 59.2821 11.0696 59.7191 10.9601C60.2699 10.8311 60.7742 10.5234 61.1689 10.0755C61.5636 9.62764 61.831 9.05957 61.9376 8.4426C62.0736 7.71753 61.9844 6.96236 61.6848 6.3014C61.576 6.06355 61.5193 5.80026 61.5193 5.53317C61.5193 5.26608 61.576 5.00279 61.6848 4.76494Z" fill="#FBDE42"/>
<path d="M72.3152 4.76494L72.7704 4.5581C72.5135 3.99272 72.4359 3.34203 72.5538 2.71635L72.5538 2.71636L72.5552 2.70868C72.6465 2.17869 72.8754 1.69736 73.2058 1.3231C73.5357 0.94939 73.9503 0.700544 74.3937 0.597854L74.3937 0.597933L74.4024 0.595752C74.7567 0.506972 75.1238 0.510207 75.477 0.605335C75.8305 0.700547 76.1645 0.886407 76.4518 1.1534L76.4517 1.15351L76.4609 1.16168C77.4071 1.9985 78.5942 2.4484 79.8188 2.42046H90.1812C91.4058 2.4484 92.5929 1.9985 93.5391 1.16168L93.5392 1.1618L93.5482 1.1534C93.8355 0.886407 94.1695 0.700547 94.523 0.605336C94.8762 0.510207 95.2433 0.506972 95.5976 0.595752L95.5976 0.59583L95.6063 0.597854C96.0497 0.700544 96.4643 0.94939 96.7942 1.3231C97.1246 1.69736 97.3535 2.17869 97.4448 2.70868L97.4448 2.70869L97.4462 2.71635C97.5641 3.34183 97.4866 3.99231 97.2299 4.55756C97.0907 4.86193 97.0193 5.19609 97.0193 5.53317C97.0193 5.8702 97.0907 6.20429 97.2298 6.50862C97.486 7.07427 97.5635 7.72473 97.4461 8.35042L97.4461 8.35041L97.4449 8.35749C97.3532 8.888 97.1243 9.36991 96.7938 9.74495C96.4638 10.1195 96.0489 10.3693 95.6051 10.4732L95.6051 10.4732L95.5976 10.4751C95.2433 10.5638 94.8762 10.5606 94.523 10.4655C94.1695 10.3703 93.8355 10.1844 93.5482 9.91742L93.5483 9.91732L93.5395 9.90948C92.5937 9.07128 91.4067 8.61968 90.1816 8.64588H79.8184C78.5933 8.61968 77.4063 9.07128 76.4605 9.90948L76.4604 9.90938L76.4518 9.91742C76.1645 10.1844 75.8305 10.3703 75.477 10.4655C75.1238 10.5606 74.7567 10.5638 74.4024 10.4751L74.4024 10.475L74.3949 10.4732C73.9511 10.3693 73.5362 10.1195 73.2062 9.74495C72.8757 9.36991 72.6468 8.888 72.5551 8.35749L72.5552 8.35748L72.5539 8.35042C72.4365 7.7247 72.514 7.07421 72.7703 6.50853C72.9093 6.20423 72.9807 5.87016 72.9807 5.53317C72.9807 5.19586 72.9092 4.86147 72.7699 4.55693L72.3152 4.76494ZM72.3152 4.76494C72.0149 4.10419 71.9258 3.34878 72.0624 2.62374L72.3152 6.3014C72.424 6.06355 72.4807 5.80026 72.4807 5.53317C72.4807 5.26608 72.424 5.00279 72.3152 4.76494Z" stroke="#FBDE42"/>
<path d="M108.327 4.76494L108.779 4.55157C108.514 3.98838 108.434 3.34148 108.556 2.71978L108.556 2.71979L108.557 2.71185C108.651 2.1853 108.888 1.70507 109.231 1.33007C109.575 0.955462 110.009 0.703188 110.477 0.598758L110.477 0.598832L110.486 0.596797C110.86 0.506567 111.248 0.50987 111.62 0.606527C111.993 0.703225 112.343 0.891469 112.643 1.15973L112.643 1.15984L112.652 1.16781C113.632 2.00243 114.858 2.44827 116.119 2.42046H126.881C128.142 2.44827 129.368 2.00243 130.348 1.16781L130.348 1.16792L130.357 1.15973C130.657 0.891469 131.007 0.703225 131.38 0.606527C131.752 0.50987 132.14 0.506567 132.514 0.596797L132.514 0.59687L132.523 0.598758C132.991 0.703188 133.425 0.955462 133.769 1.33007C134.112 1.70507 134.349 2.1853 134.443 2.71185L134.443 2.71186L134.444 2.71978C134.566 3.34134 134.486 3.98807 134.221 4.55117C134.076 4.85684 134.001 5.19324 134.001 5.53317C134.001 5.87309 134.076 6.20949 134.221 6.51515C134.486 7.07862 134.565 7.72529 134.444 8.347L134.444 8.34699L134.443 8.35432C134.348 8.8814 134.112 9.3622 133.768 9.73797C133.425 10.1134 132.99 10.3667 132.521 10.4723L132.521 10.4723L132.514 10.474C132.14 10.5643 131.752 10.5609 131.38 10.4643C131.007 10.3676 130.657 10.1793 130.357 9.91109L130.357 9.91099L130.348 9.90335C129.369 9.06733 128.143 8.6198 126.881 8.64588H116.119C114.857 8.6198 113.631 9.06733 112.652 9.90335L112.652 9.90325L112.643 9.91109C112.343 10.1793 111.993 10.3676 111.62 10.4643C111.248 10.5609 110.86 10.5643 110.486 10.474L110.486 10.474L110.479 10.4723C110.01 10.3667 109.575 10.1134 109.232 9.73797C108.888 9.3622 108.652 8.8814 108.557 8.35432L108.557 8.35431L108.556 8.347C108.435 7.72526 108.514 7.07855 108.779 6.51507C108.924 6.20943 108.999 5.87306 108.999 5.53317C108.999 5.19295 108.924 4.85626 108.779 4.55038L108.327 4.76494ZM108.327 4.76494C108.016 4.10419 107.923 3.34878 108.065 2.62374L108.327 4.76494Z" stroke="#FBDE42"/>
<path d="M145.315 4.76494L145.77 4.5581C145.513 3.99272 145.436 3.34203 145.554 2.71635L145.554 2.71636L145.555 2.70868C145.647 2.17869 145.875 1.69736 146.206 1.3231C146.536 0.94939 146.95 0.700544 147.394 0.597854L147.394 0.597933L147.402 0.595752C147.757 0.506972 148.124 0.510207 148.477 0.605335C148.83 0.700547 149.165 0.886407 149.452 1.1534L149.452 1.15351L149.461 1.16168C150.407 1.9985 151.594 2.4484 152.819 2.42046H163.181C164.406 2.4484 165.593 1.9985 166.539 1.16168L166.539 1.1618L166.548 1.1534C166.835 0.886407 167.17 0.700547 167.523 0.605336C167.876 0.510207 168.243 0.506972 168.598 0.595752L168.598 0.59583L168.606 0.597854C169.05 0.700544 169.464 0.94939 169.794 1.3231C170.125 1.69736 170.353 2.17869 170.445 2.70868L170.445 2.70869L170.446 2.71635C170.564 3.34183 170.487 3.99231 170.23 4.55756C170.091 4.86193 170.019 5.19609 170.019 5.53317C170.019 5.8702 170.091 6.20429 170.23 6.50862C170.486 7.07427 170.563 7.72473 170.446 8.35042L170.446 8.35041L170.445 8.35749C170.353 8.888 170.124 9.36991 169.794 9.74495C169.464 10.1195 169.049 10.3693 168.605 10.4732L168.605 10.4732L168.598 10.4751C168.243 10.5638 167.876 10.5606 167.523 10.4655C167.17 10.3703 166.835 10.1844 166.548 9.91742L166.548 9.91732L166.539 9.90948C165.594 9.07128 164.407 8.61968 163.182 8.64588H152.818C151.593 8.61968 150.406 9.07128 149.461 9.90948L149.46 9.90938L149.452 9.91742C149.165 10.1844 148.83 10.3703 148.477 10.4655C148.124 10.5606 147.757 10.5638 147.402 10.4751L147.402 10.475L147.395 10.4732C146.951 10.3693 146.536 10.1195 146.206 9.74495C145.876 9.36991 145.647 8.888 145.555 8.35749L145.555 8.35748L145.554 8.35042C145.436 7.7247 145.514 7.07421 145.77 6.50853C145.909 6.20423 145.981 5.87016 145.981 5.53317C145.981 5.19586 145.909 4.86147 145.77 4.55693L145.315 4.76494ZM145.315 4.76494C145.015 4.10419 144.926 3.34878 145.062 2.62374L145.315 6.3014C145.424 6.06355 145.481 5.80026 145.481 5.53317C145.481 5.26608 145.424 5.00279 145.315 4.76494Z" stroke="#FBDE42"/>
</svg>
