<svg width="171" height="12" viewBox="0 0 171 12" fill="none" xmlns="http://www.w3.org/2000/svg">
<path d="M25.6848 4.74901C25.9851 4.08826 26.0742 3.33285 25.9376 2.60781C25.8313 1.99118 25.5639 1.42348 25.1691 0.976267C24.7743 0.529058 24.2698 0.222357 23.7191 0.0948189C23.2821 -0.0146989 22.8284 -0.0106644 22.393 0.106611C21.9576 0.223887 21.5521 0.451269 21.2078 0.771221C20.3498 1.53013 19.2814 1.93093 18.1871 1.90453H7.81294C6.71857 1.93093 5.65024 1.53013 4.79217 0.771221C4.44792 0.451269 4.04245 0.223887 3.60703 0.106611C3.17162 -0.0106644 2.71791 -0.0146989 2.28088 0.0948189C1.73023 0.222357 1.22571 0.529058 0.830921 0.976267C0.43613 1.42348 0.168735 1.99118 0.062437 2.60781C-0.0742165 3.33285 0.0149472 4.08826 0.31517 4.74901C0.423983 4.98686 0.480719 5.25015 0.480719 5.51724C0.480719 5.78433 0.423983 6.04762 0.31517 6.28547C0.0155689 6.94643 -0.0735661 7.7016 0.062437 8.42667C0.169011 9.04364 0.436418 9.61171 0.831096 10.0596C1.22577 10.5075 1.73014 10.8152 2.28088 10.9441C2.71791 11.0537 3.17162 11.0496 3.60703 10.9323C4.04245 10.8151 4.44792 10.5877 4.79217 10.2677C5.64986 9.50756 6.71813 9.10519 7.81294 9.12995H18.1871C19.2819 9.10519 20.3501 9.50756 21.2078 10.2677C21.5521 10.5877 21.9576 10.8151 22.393 10.9323C22.8284 11.0496 23.2821 11.0537 23.7191 10.9441C24.2699 10.8152 24.7742 10.5075 25.1689 10.0596C25.5636 9.61171 25.831 9.04364 25.9376 8.42667C26.0736 7.7016 25.9844 6.94643 25.6848 6.28547C25.576 6.04762 25.5193 5.78433 25.5193 5.51724C25.5193 5.25015 25.576 4.98686 25.6848 4.74901Z" fill="#FBDE42"/>
<path d="M61.6848 4.74895C61.9851 4.0882 62.0742 3.33279 61.9376 2.60775C61.8313 1.99111 61.5639 1.42342 61.1691 0.976206C60.7743 0.528997 60.2698 0.222296 59.7191 0.0947579C59.2821 -0.01476 58.8284 -0.0107254 58.393 0.10655C57.9576 0.223826 57.5521 0.451208 57.2078 0.77116C56.3498 1.53007 55.2814 1.93087 54.1871 1.90447H43.8129C42.7186 1.93087 41.6502 1.53007 40.7922 0.77116C40.4479 0.451208 40.0424 0.223826 39.607 0.10655C39.1716 -0.0107254 38.7179 -0.01476 38.2809 0.0947579C37.7302 0.222296 37.2257 0.528997 36.8309 0.976206C36.4361 1.42342 36.1687 1.99111 36.0624 2.60775C35.9258 3.33279 36.0149 4.0882 36.3152 4.74895C36.424 4.9868 36.4807 5.25009 36.4807 5.51718C36.4807 5.78427 36.424 6.04756 36.3152 6.28541C36.0156 6.94637 35.9264 7.70154 36.0624 8.42661C36.169 9.04358 36.4364 9.61165 36.8311 10.0595C37.2258 10.5074 37.7301 10.8151 38.2809 10.9441C38.7179 11.0536 39.1716 11.0496 39.607 10.9323C40.0424 10.815 40.4479 10.5876 40.7922 10.2677C41.6499 9.5075 42.7181 9.10513 43.8129 9.12989H54.1871C55.2819 9.10513 56.3501 9.5075 57.2078 10.2677C57.5521 10.5876 57.9576 10.815 58.393 10.9323C58.8284 11.0496 59.2821 11.0536 59.7191 10.9441C60.2699 10.8151 60.7742 10.5074 61.1689 10.0595C61.5636 9.61165 61.831 9.04358 61.9376 8.42661C62.0736 7.70154 61.9844 6.94637 61.6848 6.28541C61.576 6.04756 61.5193 5.78427 61.5193 5.51718C61.5193 5.25009 61.576 4.9868 61.6848 4.74895Z" fill="#FBDE42"/>
<path d="M97.6848 4.74895C97.9851 4.0882 98.0742 3.33279 97.9376 2.60775C97.8313 1.99111 97.5639 1.42342 97.1691 0.976206C96.7743 0.528997 96.2698 0.222296 95.7191 0.0947579C95.2821 -0.01476 94.8284 -0.0107254 94.393 0.10655C93.9576 0.223826 93.5521 0.451208 93.2078 0.77116C92.3498 1.53007 91.2814 1.93087 90.1871 1.90447H79.8129C78.7186 1.93087 77.6502 1.53007 76.7922 0.77116C76.4479 0.451208 76.0424 0.223826 75.607 0.10655C75.1716 -0.0107254 74.7179 -0.01476 74.2809 0.0947579C73.7302 0.222296 73.2257 0.528997 72.8309 0.976206C72.4361 1.42342 72.1687 1.99111 72.0624 2.60775C71.9258 3.33279 72.0149 4.0882 72.3152 4.74895C72.424 4.9868 72.4807 5.25009 72.4807 5.51718C72.4807 5.78427 72.424 6.04756 72.3152 6.28541C72.0156 6.94637 71.9264 7.70154 72.0624 8.42661C72.169 9.04358 72.4364 9.61165 72.8311 10.0595C73.2258 10.5074 73.7301 10.8151 74.2809 10.9441C74.7179 11.0536 75.1716 11.0496 75.607 10.9323C76.0424 10.815 76.4479 10.5876 76.7922 10.2677C77.6499 9.5075 78.7181 9.10513 79.8129 9.12989H90.1871C91.2819 9.10513 92.3501 9.5075 93.2078 10.2677C93.5521 10.5876 93.9576 10.815 94.393 10.9323C94.8284 11.0496 95.2821 11.0536 95.7191 10.9441C96.2699 10.8151 96.7742 10.5074 97.1689 10.0595C97.5636 9.61165 97.831 9.04358 97.9376 8.42661C98.0736 7.70154 97.9844 6.94637 97.6848 6.28541C97.576 6.04756 97.5193 5.78427 97.5193 5.51718C97.5193 5.25009 97.576 4.9868 97.6848 4.74895Z" fill="#FBDE42"/>
<path d="M108.327 4.74895L108.779 4.53558C108.514 3.97239 108.434 3.32549 108.556 2.70379L108.556 2.7038L108.557 2.69586C108.651 2.16931 108.888 1.68907 109.231 1.31408C109.575 0.939471 110.009 0.687197 110.477 0.582767L110.477 0.582841L110.486 0.580806C110.86 0.490576 111.248 0.493879 111.62 0.590536C111.993 0.687234 112.343 0.875478 112.643 1.14373L112.643 1.14385L112.652 1.15182C113.632 1.98644 114.858 2.43228 116.119 2.40447H126.881C128.142 2.43228 129.368 1.98644 130.348 1.15182L130.348 1.15193L130.357 1.14373C130.657 0.875478 131.007 0.687234 131.38 0.590536C131.752 0.493879 132.14 0.490576 132.514 0.580806L132.514 0.580879L132.523 0.582767C132.991 0.687197 133.425 0.939471 133.769 1.31408C134.112 1.68907 134.349 2.16931 134.443 2.69586L134.443 2.69587L134.444 2.70379C134.566 3.32534 134.486 3.97208 134.221 4.53518C134.076 4.84085 134.001 5.17725 134.001 5.51718C134.001 5.8571 134.076 6.1935 134.221 6.49916C134.486 7.06263 134.565 7.70929 134.444 8.33101L134.444 8.331L134.443 8.33833C134.348 8.86541 134.112 9.34621 133.768 9.72198C133.425 10.0974 132.99 10.3507 132.521 10.4563L132.521 10.4563L132.514 10.458C132.14 10.5483 131.752 10.545 131.38 10.4483C131.007 10.3516 130.657 10.1634 130.357 9.8951L130.357 9.895L130.348 9.88736C129.369 9.05134 128.143 8.60381 126.881 8.62989H116.119C114.857 8.60381 113.631 9.05134 112.652 9.88736L112.652 9.88726L112.643 9.8951C112.343 10.1634 111.993 10.3516 111.62 10.4483C111.248 10.545 110.86 10.5483 110.486 10.458L110.486 10.458L110.479 10.4563C110.01 10.3507 109.575 10.0974 109.232 9.72198C108.888 9.34621 108.652 8.86541 108.557 8.33833L108.557 8.33832L108.556 8.33101C108.435 7.70926 108.514 7.06256 108.779 6.49908C108.924 6.19343 108.999 5.85707 108.999 5.51718C108.999 5.17696 108.924 4.84027 108.779 4.53439L108.327 4.74895ZM108.327 4.74895C108.016 4.0882 107.923 3.33279 108.065 2.60775L108.327 4.74895Z" stroke="#FBDE42"/>
<path d="M145.315 4.74895L145.77 4.54211C145.513 3.97673 145.436 3.32604 145.554 2.70036L145.554 2.70037L145.555 2.69269C145.647 2.1627 145.875 1.68136 146.206 1.30711C146.536 0.933399 146.95 0.684553 147.394 0.581863L147.394 0.581942L147.402 0.579761C147.757 0.49098 148.124 0.494216 148.477 0.589344C148.83 0.684556 149.165 0.870416 149.452 1.1374L149.452 1.13752L149.461 1.14569C150.407 1.98251 151.594 2.4324 152.819 2.40447H163.181C164.406 2.4324 165.593 1.98251 166.539 1.14569L166.539 1.14581L166.548 1.1374C166.835 0.870415 167.17 0.684556 167.523 0.589344C167.876 0.494216 168.243 0.49098 168.598 0.579761L168.598 0.579839L168.606 0.581863C169.05 0.684553 169.464 0.933398 169.794 1.30711C170.125 1.68136 170.353 2.1627 170.445 2.69269L170.445 2.6927L170.446 2.70036C170.564 3.32584 170.487 3.97632 170.23 4.54157C170.091 4.84594 170.019 5.18009 170.019 5.51718C170.019 5.85421 170.091 6.1883 170.23 6.49263C170.486 7.05828 170.563 7.70874 170.446 8.33443L170.446 8.33442L170.445 8.3415C170.353 8.87201 170.124 9.35392 169.794 9.72896C169.464 10.1035 169.049 10.3533 168.605 10.4572L168.605 10.4572L168.598 10.4591C168.243 10.5479 167.876 10.5446 167.523 10.4495C167.17 10.3543 166.835 10.1684 166.548 9.90143L166.548 9.90133L166.539 9.89349C165.594 9.05529 164.407 8.60369 163.182 8.62989H152.818C151.593 8.60369 150.406 9.05529 149.461 9.89349L149.46 9.89339L149.452 9.90143C149.165 10.1684 148.83 10.3543 148.477 10.4495C148.124 10.5446 147.757 10.5479 147.402 10.4591L147.402 10.459L147.395 10.4572C146.951 10.3533 146.536 10.1035 146.206 9.72896C145.876 9.35392 145.647 8.87201 145.555 8.3415L145.555 8.34149L145.554 8.33443C145.436 7.70871 145.514 7.05822 145.77 6.49254C145.909 6.18824 145.981 5.85417 145.981 5.51718C145.981 5.17986 145.909 4.84548 145.77 4.54094L145.315 4.74895ZM145.315 4.74895C145.015 4.0882 144.926 3.33279 145.062 2.60775L145.315 6.28541C145.424 6.04756 145.481 5.78427 145.481 5.51718C145.481 5.25009 145.424 4.9868 145.315 4.74895Z" stroke="#FBDE42"/>
</svg>
