<svg width="171" height="12" viewBox="0 0 171 12" fill="none" xmlns="http://www.w3.org/2000/svg">
<path d="M25.6848 4.74113C25.9851 4.08039 26.0742 3.32498 25.9376 2.59994C25.8313 1.9833 25.5639 1.4156 25.1691 0.968394C24.7743 0.521185 24.2698 0.214483 23.7191 0.0869454C23.2821 -0.0225725 22.8284 -0.0185379 22.393 0.0987377C21.9576 0.216013 21.5521 0.443395 21.2078 0.763348C20.3498 1.52225 19.2814 1.92306 18.1871 1.89666H7.81294C6.71857 1.92306 5.65024 1.52225 4.79217 0.763348C4.44792 0.443395 4.04245 0.216013 3.60703 0.0987377C3.17162 -0.0185379 2.71791 -0.0225725 2.28088 0.0869454C1.73023 0.214483 1.22571 0.521185 0.830921 0.968394C0.43613 1.4156 0.168735 1.9833 0.062437 2.59994C-0.0742165 3.32498 0.0149472 4.08039 0.31517 4.74113C0.423983 4.97899 0.480719 5.24227 0.480719 5.50937C0.480719 5.77646 0.423983 6.03974 0.31517 6.2776C0.0155689 6.93856 -0.0735661 7.69373 0.062437 8.41879C0.169011 9.03577 0.436418 9.60384 0.831096 10.0517C1.22577 10.4996 1.73014 10.8073 2.28088 10.9363C2.71791 11.0458 3.17162 11.0417 3.60703 10.9245C4.04245 10.8072 4.44792 10.5798 4.79217 10.2599C5.64986 9.49969 6.71813 9.09732 7.81294 9.12207H18.1871C19.2819 9.09732 20.3501 9.49969 21.2078 10.2599C21.5521 10.5798 21.9576 10.8072 22.393 10.9245C22.8284 11.0417 23.2821 11.0458 23.7191 10.9363C24.2699 10.8073 24.7742 10.4996 25.1689 10.0517C25.5636 9.60384 25.831 9.03577 25.9376 8.41879C26.0736 7.69373 25.9844 6.93856 25.6848 6.2776C25.576 6.03974 25.5193 5.77646 25.5193 5.50937C25.5193 5.24227 25.576 4.97899 25.6848 4.74113Z" fill="#FBDE42"/>
<path d="M61.6848 4.74101C61.9851 4.08027 62.0742 3.32486 61.9376 2.59982C61.8313 1.98318 61.5639 1.41548 61.1691 0.968272C60.7743 0.521063 60.2698 0.214361 59.7191 0.0868233C59.2821 -0.0226945 58.8284 -0.01866 58.393 0.0986156C57.9576 0.215891 57.5521 0.443273 57.2078 0.763225C56.3498 1.52213 55.2814 1.92294 54.1871 1.89654H43.8129C42.7186 1.92294 41.6502 1.52213 40.7922 0.763225C40.4479 0.443273 40.0424 0.215891 39.607 0.0986156C39.1716 -0.01866 38.7179 -0.0226945 38.2809 0.0868233C37.7302 0.214361 37.2257 0.521063 36.8309 0.968272C36.4361 1.41548 36.1687 1.98318 36.0624 2.59982C35.9258 3.32486 36.0149 4.08027 36.3152 4.74101C36.424 4.97887 36.4807 5.24215 36.4807 5.50924C36.4807 5.77634 36.424 6.03962 36.3152 6.27748C36.0156 6.93844 35.9264 7.6936 36.0624 8.41867C36.169 9.03564 36.4364 9.60372 36.8311 10.0516C37.2258 10.4995 37.7301 10.8072 38.2809 10.9361C38.7179 11.0457 39.1716 11.0416 39.607 10.9244C40.0424 10.8071 40.4479 10.5797 40.7922 10.2597C41.6499 9.49957 42.7181 9.0972 43.8129 9.12195H54.1871C55.2819 9.0972 56.3501 9.49957 57.2078 10.2597C57.5521 10.5797 57.9576 10.8071 58.393 10.9244C58.8284 11.0416 59.2821 11.0457 59.7191 10.9361C60.2699 10.8072 60.7742 10.4995 61.1689 10.0516C61.5636 9.60372 61.831 9.03564 61.9376 8.41867C62.0736 7.6936 61.9844 6.93844 61.6848 6.27748C61.576 6.03962 61.5193 5.77634 61.5193 5.50924C61.5193 5.24215 61.576 4.97887 61.6848 4.74101Z" fill="#FBDE42"/>
<path d="M97.6848 4.74101C97.9851 4.08027 98.0742 3.32486 97.9376 2.59982C97.8313 1.98318 97.5639 1.41548 97.1691 0.968272C96.7743 0.521063 96.2698 0.214361 95.7191 0.0868233C95.2821 -0.0226945 94.8284 -0.01866 94.393 0.0986156C93.9576 0.215891 93.5521 0.443273 93.2078 0.763225C92.3498 1.52213 91.2814 1.92294 90.1871 1.89654H79.8129C78.7186 1.92294 77.6502 1.52213 76.7922 0.763225C76.4479 0.443273 76.0424 0.215891 75.607 0.0986156C75.1716 -0.01866 74.7179 -0.0226945 74.2809 0.0868233C73.7302 0.214361 73.2257 0.521063 72.8309 0.968272C72.4361 1.41548 72.1687 1.98318 72.0624 2.59982C71.9258 3.32486 72.0149 4.08027 72.3152 4.74101C72.424 4.97887 72.4807 5.24215 72.4807 5.50924C72.4807 5.77634 72.424 6.03962 72.3152 6.27748C72.0156 6.93844 71.9264 7.6936 72.0624 8.41867C72.169 9.03564 72.4364 9.60372 72.8311 10.0516C73.2258 10.4995 73.7301 10.8072 74.2809 10.9361C74.7179 11.0457 75.1716 11.0416 75.607 10.9244C76.0424 10.8071 76.4479 10.5797 76.7922 10.2597C77.6499 9.49957 78.7181 9.0972 79.8129 9.12195H90.1871C91.2819 9.0972 92.3501 9.49957 93.2078 10.2597C93.5521 10.5797 93.9576 10.8071 94.393 10.9244C94.8284 11.0416 95.2821 11.0457 95.7191 10.9361C96.2699 10.8072 96.7742 10.4995 97.1689 10.0516C97.5636 9.60372 97.831 9.03564 97.9376 8.41867C98.0736 7.6936 97.9844 6.93844 97.6848 6.27748C97.576 6.03962 97.5193 5.77634 97.5193 5.50924C97.5193 5.24215 97.576 4.97887 97.6848 4.74101Z" fill="#FBDE42"/>
<path d="M134.673 4.74101C134.984 4.08027 135.077 3.32486 134.935 2.59982C134.825 1.98318 134.547 1.41548 134.137 0.968272C133.727 0.521063 133.203 0.214361 132.631 0.0868233C132.178 -0.0226945 131.706 -0.01866 131.254 0.0986156C130.802 0.215891 130.381 0.443273 130.024 0.763225C129.132 1.52213 128.023 1.92294 126.887 1.89654H116.113C114.977 1.92294 113.868 1.52213 112.976 0.763225C112.619 0.443273 112.198 0.215891 111.746 0.0986156C111.294 -0.01866 110.822 -0.0226945 110.369 0.0868233C109.797 0.214361 109.273 0.521063 108.863 0.968272C108.453 1.41548 108.175 1.98318 108.065 2.59982C107.923 3.32486 108.016 4.08027 108.327 4.74101C108.44 4.97887 108.499 5.24215 108.499 5.50924C108.499 5.77634 108.44 6.03962 108.327 6.27748C108.016 6.93844 107.924 7.6936 108.065 8.41867C108.176 9.03564 108.453 9.60372 108.863 10.0516C109.273 10.4995 109.797 10.8072 110.369 10.9361C110.822 11.0457 111.294 11.0416 111.746 10.9244C112.198 10.8071 112.619 10.5797 112.976 10.2597C113.867 9.49957 114.977 9.0972 116.113 9.12195H126.887C128.023 9.0972 129.133 9.49957 130.024 10.2597C130.381 10.5797 130.802 10.8071 131.254 10.9244C131.706 11.0416 132.178 11.0457 132.631 10.9361C133.203 10.8072 133.727 10.4995 134.137 10.0516C134.547 9.60372 134.824 9.03564 134.935 8.41867C135.076 7.6936 134.984 6.93844 134.673 6.27748C134.56 6.03962 134.501 5.77634 134.501 5.50924C134.501 5.24215 134.56 4.97887 134.673 4.74101Z" fill="#FBDE42"/>
<path d="M145.315 4.74101L145.77 4.53418C145.513 3.9688 145.436 3.31811 145.554 2.69242L145.554 2.69243L145.555 2.68475C145.647 2.15477 145.875 1.67343 146.206 1.29917C146.536 0.925464 146.95 0.676618 147.394 0.573929L147.394 0.574007L147.402 0.571826C147.757 0.483046 148.124 0.486281 148.477 0.58141C148.83 0.676621 149.165 0.862481 149.452 1.12947L149.452 1.12958L149.461 1.13776C150.407 1.97457 151.594 2.42447 152.819 2.39654H163.181C164.406 2.42447 165.593 1.97457 166.539 1.13776L166.539 1.13787L166.548 1.12947C166.835 0.862481 167.17 0.676621 167.523 0.58141C167.876 0.486281 168.243 0.483046 168.598 0.571826L168.598 0.571904L168.606 0.573929C169.05 0.676618 169.464 0.925464 169.794 1.29917C170.125 1.67343 170.353 2.15477 170.445 2.68475L170.445 2.68477L170.446 2.69242C170.564 3.31791 170.487 3.96838 170.23 4.53364C170.091 4.83801 170.019 5.17216 170.019 5.50924C170.019 5.84627 170.091 6.18037 170.23 6.48469C170.486 7.05035 170.563 7.7008 170.446 8.32649L170.446 8.32648L170.445 8.33356C170.353 8.86407 170.124 9.34598 169.794 9.72103C169.464 10.0955 169.049 10.3454 168.605 10.4493L168.605 10.4493L168.598 10.4511C168.243 10.5399 167.876 10.5367 167.523 10.4416C167.17 10.3463 166.835 10.1605 166.548 9.8935L166.548 9.8934L166.539 9.88556C165.594 9.04735 164.407 8.59576 163.182 8.62195H152.818C151.593 8.59576 150.406 9.04735 149.461 9.88556L149.46 9.88545L149.452 9.8935C149.165 10.1605 148.83 10.3463 148.477 10.4416C148.124 10.5367 147.757 10.5399 147.402 10.4511L147.402 10.4511L147.395 10.4493C146.951 10.3454 146.536 10.0955 146.206 9.72103C145.876 9.34598 145.647 8.86407 145.555 8.33356L145.555 8.33356L145.554 8.32649C145.436 7.70077 145.514 7.05028 145.77 6.48461C145.909 6.1803 145.981 5.84624 145.981 5.50924C145.981 5.17193 145.909 4.83755 145.77 4.53301L145.315 4.74101ZM145.315 4.74101C145.015 4.08027 144.926 3.32486 145.062 2.59982L145.315 6.27748C145.424 6.03962 145.481 5.77634 145.481 5.50924C145.481 5.24215 145.424 4.97887 145.315 4.74101Z" stroke="#FBDE42"/>
</svg>
