<svg width="75" height="75" viewBox="0 0 75 75" fill="none" xmlns="http://www.w3.org/2000/svg">
<g clip-path="url(#clip0_1348_2205)">
<path d="M74.8818 0H0V74.8818H74.8818V0Z" fill="#1D1D1B"/>
<path d="M8.53613 40.3084V39.8628H10.0158V26.4367H8.53613V25.9681H13.8383V27.0783C14.0367 26.8061 14.9738 25.6979 16.9452 25.6979C19.9044 25.6979 21.7556 27.9437 21.7556 31.3462C21.7556 34.7486 19.8073 37.2645 16.8714 37.2645C14.9485 37.2645 14.0345 36.2051 13.8383 35.9328V39.8628H15.2693V40.3084H8.53613ZM13.8383 34.0584C13.8383 35.6372 14.6023 36.2284 15.5163 36.2284C17.1204 36.2284 17.8338 34.453 17.8338 31.4686C17.8338 28.4841 17.1183 26.7322 15.5395 26.7322C14.6023 26.7322 13.8383 27.3738 13.8383 28.9759V34.0564V34.0584Z" fill="#F2CD00"/>
<path d="M33.7922 33.8115C33.5452 35.8588 31.9179 37.5115 28.8109 37.5115C25.0876 37.5115 22.8418 35.1432 22.8418 31.6902C22.8418 28.2371 25.1847 25.6958 28.7856 25.6958C32.1163 25.6958 33.9905 27.8656 33.9652 31.0739H26.7128V31.4433C26.7128 34.2801 27.6015 36.302 30.1913 36.302C31.8187 36.302 32.9796 35.3649 33.2244 33.8115H33.7922ZM30.2166 30.6053C30.2166 27.4983 29.748 26.215 28.6631 26.215C27.5782 26.215 26.8142 27.72 26.715 30.6053H30.2166Z" fill="#F2CD00"/>
<path d="M42.8176 34.2801C42.8176 36.0804 41.3378 37.5115 39.1682 37.5115C36.5044 37.5115 35.2716 36.0321 35.2716 33.8115V26.4367H34.0625V25.9681H35.2716V23.9207L39.0709 22.6627V25.9681H42.499V26.4367H39.0709V33.8855C39.0709 35.2426 39.5649 36.0068 40.7236 36.0068C41.6861 36.0068 42.3027 35.2172 42.3027 34.2801H42.8196H42.8176Z" fill="#F2CD00"/>
<path d="M52.3642 29.9637C52.0689 27.7432 50.9102 26.289 48.7635 26.289C47.4065 26.289 46.6909 26.9792 46.6909 27.9416C46.6909 30.9008 53.1284 29.322 53.1284 33.8115C53.1284 35.8588 51.575 37.5115 47.974 37.5115C45.7537 37.5115 44.9156 36.7223 44.0524 36.7223C43.8054 36.7223 43.5585 36.8953 43.5585 37.3892H43.1152V33.0242H43.5098C43.8561 35.4179 45.2112 36.9946 47.5054 36.9946C48.8625 36.9946 49.6521 36.3044 49.6521 35.2679C49.6521 32.334 43.2652 33.5667 43.2652 29.4234C43.2652 27.4245 44.696 25.7233 48.223 25.7233C50.2453 25.7233 51.1085 26.4135 51.8727 26.4135C52.1196 26.4135 52.3412 26.2657 52.3412 25.7971H52.7845V29.9658H52.3642V29.9637Z" fill="#F2CD00"/>
<path d="M60.6643 42.7017V42.647H60.8585V40.7493H60.7849C60.4619 40.7493 60.3352 40.9564 60.2866 41.2983H60.2295V40.5889H60.2802C60.2781 40.6628 60.3055 40.6987 60.3626 40.6987H61.895C61.9521 40.6987 61.9815 40.6649 61.9775 40.5889H62.0278V41.2983H61.971C61.9224 40.9541 61.7957 40.7493 61.4727 40.7493H61.3991V42.647H61.593V42.7017H60.6623H60.6643Z" fill="#F2CD00"/>
<path d="M63.4966 42.7017V42.647H63.6885V41.0091C63.5345 41.5726 63.3743 42.1402 63.2223 42.7017H62.8781L62.3696 40.9963V42.3196C62.3696 42.5541 62.4517 42.649 62.549 42.649H62.5804V42.7041H62.0889V42.649H62.1203C62.2176 42.649 62.2997 42.5541 62.2997 42.3196V40.7557H62.1078V40.6987H62.8358L63.277 42.2395L63.7014 40.6987H64.402V40.7557H64.2101V42.649H64.402V42.7041H63.4966V42.7017Z" fill="#F2CD00"/>
<path d="M34.5565 49.3845C34.5565 50.0007 34.2356 50.4946 33.7184 50.4946C33.2013 50.4946 33.0282 50.1 33.0282 49.4098V44.3291C33.0282 41.6655 31.2278 40.2345 27.9709 40.2345C24.7141 40.2345 23.0635 41.7392 23.0635 43.4405C23.0635 44.5 23.8783 45.2895 24.9632 45.2895C26.1472 45.2895 27.0359 44.5487 27.0359 43.5632C27.0359 42.5774 26.2465 42.0095 25.3346 42.0095C25.1616 42.0095 25.0877 41.9105 25.0877 41.8365C25.0877 41.3426 25.9256 40.8 27.1351 40.8C28.5893 40.8 29.4294 41.5155 29.4294 42.896C29.4294 47.4088 22.4746 44.9182 22.4746 49.2091C22.4746 50.9841 23.9795 52.046 25.8792 52.046C28.2706 52.046 29.2838 50.3193 29.4801 50.024C29.8009 51.3071 30.7866 52.0226 32.2915 52.0226C34.2649 52.0226 35.0038 50.6169 35.0038 49.3845H34.5606H34.5565ZM29.2774 48.9412C29.2774 50.0007 28.6358 50.6929 27.6986 50.6929C26.9092 50.6929 26.219 50.102 26.219 48.9179C26.219 46.4503 28.068 46.2287 29.2774 44.9963V48.9432V48.9412Z" fill="#F2CD00"/>
<path d="M51.6974 42.4527C51.6974 41.4902 52.4129 40.8 53.77 40.8C55.9167 40.8 57.0754 42.2544 57.3711 44.475H57.791V40.3061H57.3477C57.3477 40.7747 57.1261 40.9226 56.8792 40.9226C56.1153 40.9226 55.2518 40.2324 53.2298 40.2324C49.7028 40.2324 48.2717 41.9334 48.2717 43.9324C48.2717 48.0757 54.6589 46.8429 54.6589 49.777C54.6589 50.8132 53.8694 51.5034 52.5123 51.5034C50.218 51.5034 48.8629 49.9247 48.5167 47.5331H48.1221V51.8983H48.5653C48.5653 51.4044 48.8123 51.2311 49.0592 51.2311C49.9224 51.2311 50.7602 52.0206 52.9809 52.0206C56.5815 52.0206 58.1352 50.3679 58.1352 48.3206C58.1352 43.8311 51.6974 45.4098 51.6974 42.4507V42.4527Z" fill="#F2CD00"/>
<path d="M20.7695 51.3071V39.4807V39.9263V37.3132L16.8964 38.5713V39.9263V39.4807V51.3071H15.3936V51.7757H22.2006V51.3071H20.7695Z" fill="#F2CD00"/>
<path d="M42.3517 40.2091C40.4037 40.2091 39.4412 41.3193 39.2449 41.5895V38.5713L35.5446 37.3132V49.1628C35.5446 50.0747 35.3716 50.6909 35.1247 51.5057L34.8037 52.4682H35.3209C35.7642 50.9885 36.1105 50.5432 36.678 50.5432C37.9615 50.5432 38.601 51.9743 41.0432 51.9743C44.7432 51.9743 47.1601 49.3845 47.1601 45.7834C47.1601 42.478 45.3595 40.2091 42.3497 40.2091H42.3517ZM40.9459 51.4064C40.0341 51.4064 39.2449 50.8155 39.2449 49.1858V43.4892C39.2449 41.8851 40.0088 41.2686 40.9459 41.2686C42.525 41.2686 43.2405 43.1916 43.2405 46.1527C43.2405 49.1142 42.525 51.4064 40.9459 51.4064Z" fill="#F2CD00"/>
<path d="M62.2788 25.9681V26.3881H62.6734C63.9801 26.3881 64.2018 27.4245 63.7332 28.5833L61.8102 33.4675L58.7771 26.4388H60.2568V25.9702H53.3018V26.4388H54.7562L58.9629 35.3757L59.1021 35.6709L59.4717 36.4689L59.4822 36.4899L59.6318 36.8172L60.1366 37.8956C59.7268 39.0608 59.1487 39.6899 58.2747 39.8524C57.4494 40.0064 57.019 39.7108 56.9176 39.3037C56.9534 39.2213 57.0653 39.1497 57.2595 39.1135C58.1078 38.9554 58.6822 38.2716 58.5112 37.349C58.3443 36.452 57.673 35.9497 56.6072 36.148C55.6132 36.3338 54.9822 37.2541 55.1761 38.2966C55.4379 39.7024 56.544 40.6503 58.3379 40.3169C59.5136 40.0973 60.2271 39.2615 60.717 37.6848L60.9531 37.0851L61.3501 36.0868L64.2754 28.7078C64.818 27.3021 65.5335 26.3902 66.57 26.3902H66.8906V25.9702H62.2788V25.9681Z" fill="#F2CD00"/>
</g>
<defs>
<clipPath id="clip0_1348_2205">
<rect width="75" height="75" fill="white"/>
</clipPath>
</defs>
</svg>
